<?xml version="1.0" standalone="no"?>
<!DOCTYPE svg PUBLIC "-//W3C//DTD SVG 20010904//EN"
 "http://www.w3.org/TR/2001/REC-SVG-20010904/DTD/svg10.dtd">
<svg version="1.0" xmlns="http://www.w3.org/2000/svg"
 width="512.000000pt" height="512.000000pt" viewBox="0 0 512.000000 512.000000"
 preserveAspectRatio="xMidYMid meet">
<metadata>
Created by potrace 1.14, written by Peter Selinger 2001-2017
</metadata>
<g transform="translate(0.000000,512.000000) scale(0.100000,-0.100000)"
fill="#000000" stroke="none">
<path d="M393 4495 c-188 -43 -342 -197 -382 -384 -8 -38 -11 -326 -11 -1000
1 -890 2 -951 19 -1008 54 -177 189 -307 362 -348 48 -11 126 -15 312 -15
l247 0 0 -22 c9 -454 9 -460 33 -501 39 -71 128 -104 199 -74 19 8 209 146
421 306 l386 291 818 0 c881 0 857 -1 977 54 76 35 173 132 215 214 59 118 58
89 56 1132 -1 955 -1 955 -23 1022 -51 153 -168 270 -322 320 l-65 21 -1596 2
c-1135 1 -1611 -2 -1646 -10z m3232 -337 c40 -21 64 -50 79 -92 17 -49 15
-1859 -2 -1896 -18 -40 -48 -69 -86 -85 -30 -13 -158 -15 -878 -16 -464 -1
-853 -4 -866 -7 -13 -4 -151 -103 -308 -221 -156 -118 -286 -212 -289 -210 -2
3 -5 69 -6 148 -2 186 -18 232 -95 271 -36 19 -61 20 -379 20 -334 0 -341 1
-380 23 -22 13 -49 40 -62 62 l-23 40 0 928 0 928 23 40 c14 26 37 47 67 62
l45 22 1565 0 c1415 -1 1568 -2 1595 -17z"/>
<path d="M1106 3579 c-39 -11 -93 -65 -107 -106 -15 -47 -4 -110 27 -150 53
-69 2 -66 999 -66 1010 0 946 -5 1000 73 44 64 34 161 -22 212 -52 47 -32 46
-978 46 -490 0 -903 -4 -919 -9z"/>
<path d="M1389 2848 c-21 -9 -51 -35 -68 -58 -25 -35 -29 -49 -28 -94 3 -64
35 -118 87 -143 32 -16 87 -18 633 -18 649 -1 649 -1 699 54 69 77 54 191 -34
248 l-41 28 -605 0 c-547 0 -609 -1 -643 -17z"/>
<path d="M4591 3469 c-103 -21 -159 -135 -112 -231 26 -54 71 -85 136 -94 73
-9 109 -27 141 -70 l29 -37 3 -729 c3 -779 4 -748 -46 -805 -43 -50 -66 -53
-430 -53 l-338 0 -41 -26 c-67 -44 -77 -71 -81 -216 -2 -71 -6 -128 -9 -128
-3 0 -51 28 -105 63 -55 34 -115 71 -133 82 -34 21 -71 44 -247 155 l-103 65
-460 0 -460 0 -33 -23 c-39 -29 -72 -89 -72 -134 1 -48 33 -112 71 -139 l34
-24 409 -3 409 -3 51 -33 c80 -51 110 -70 128 -81 22 -13 86 -53 348 -217 256
-161 273 -170 319 -172 71 -4 154 60 166 127 4 26 8 110 14 355 l1 22 248 0
c279 0 337 9 437 65 73 40 125 91 177 169 76 118 72 71 75 920 3 654 1 768
-12 819 -52 202 -213 347 -416 374 -35 5 -79 6 -98 2z"/>
</g>
</svg>
